{"title":"Once Upon a Time in America (1984) [Extended Director's Cut]","uid":11282720,"size":4855680744,"categoryP":"video","categoryS":"hd___movies","magnet":"?xt=urn:btih:cd156ac289b5cd986c292f78cf1c8db31141b8c3&amp;dn=Once+Upon+a+Time+in+America+%281984%29+%5BExtended+Director%27s+Cut%5D&amp;tr=udp%3A%2F%2Ftracker.openbittorrent.com%3A80&amp;tr=udp%3A%2F%2Fopen.demonii.com%3A1337&amp;tr=udp%3A%2F%2Ftracker.coppersurfer.tk%3A6969&amp;tr=udp%3A%2F%2Fexodus.desync.com%3A6969","seeders":6,"leechers":1,"uploader":"gixer1000k9","files":-1,"time":1414197233,"description":"Once Upon a Time in America (1984) [Extended Director's Cut] [251 min]\n\n\nEpic tale of a group of Jewish gangsters in New York, from childhood, through their glory years during prohibition, and their meeting again 35 years later.\n\n &lt;a href=&quot;\nhttp://i.imgur.com/qyCLZDG.jpg&quot; rel=&quot;nofollow&quot; target=&quot;_NEW&quot;&gt;\nhttp://i.imgur.com/qyCLZDG.jpg&lt;/a&gt;\n &lt;a href=&quot;\nhttp://i.imgur.com/wTVDlkN.jpg&quot; rel=&quot;nofollow&quot; target=&quot;_NEW&quot;&gt;\nhttp://i.imgur.com/wTVDlkN.jpg&lt;/a&gt;\n &lt;a href=&quot;\nhttp://i.imgur.com/Pqt3hXY.jpg&quot; rel=&quot;nofollow&quot; target=&quot;_NEW&quot;&gt;\nhttp://i.imgur.com/Pqt3hXY.jpg&lt;/a&gt;\n &lt;a href=&quot;\nhttp://i.imgur.com/Bzuvpxo.jpg&quot; rel=&quot;nofollow&quot; target=&quot;_NEW&quot;&gt;\nhttp://i.imgur.com/Bzuvpxo.jpg&lt;/a&gt;\n &lt;a href=&quot;\nhttp://i.imgur.com/De2Zj1p.jpg&quot; rel=&quot;nofollow&quot; target=&quot;_NEW&quot;&gt;\nhttp://i.imgur.com/De2Zj1p.jpg&lt;/a&gt;\n\n\nTechnical Data:\n\nFormat                                   : MPEG-4\nFormat profile                           : Base Media\nCodec ID                                 : isom\nFile size                                : 4.52 GiB\nDuration                                 : 4h 11mn\nOverall bit rate                         : 2 578 Kbps\nMovie name                               : Once Upon a Time in America (1984) [Extended Director's Cut] Rip by gixerk9\nWriting application                      : Lavf56.7.104\n\nVideo\nID                                       : 1\nFormat                                   : AVC\nFormat/Info                              : Advanced Video Codec\nFormat profile                           : &lt;a class=&quot;__cf_email__&quot; href=&quot;/cdn-cgi/l/email-protection&quot; data-cfemail=&quot;3e765759567e720a100f&quot;&gt;[email&amp;#160;protected]&lt;/a&gt;&lt;script cf-hash='f9e31' type=&quot;text/javascript&quot;&gt;\n/* &lt;![CDATA[ */!function(){try{var t=&quot;currentScript&quot;in document?document.currentScript:function(){for(var t=document.getElementsByTagName(&quot;script&quot;),e=t.length;e--;)if(t[e].getAttribute(&quot;cf-hash&quot;))return t[e]}();if(t&amp;&amp;t.previousSibling){var e,r,n,i,c=t.previousSibling,a=c.getAttribute(&quot;data-cfemail&quot;);if(a){for(e=&quot;&quot;,r=parseInt(a.substr(0,2),16),n=2;a.length-n;n+=2)i=parseInt(a.substr(n,2),16)^r,e+=String.fromCharCode(i);e=document.createTextNode(e),c.parentNode.replaceChild(e,c)}}}catch(u){}}();/* ]]&gt; */&lt;/script&gt;\nFormat settings, CABAC                   : Yes\nFormat settings, ReFrames                : 2 frames\nCodec ID                                 : avc1\nCodec ID/Info                            : Advanced Video Coding\nDuration                                 : 4h 11mn\nBit rate                                 : 2 187 Kbps\nWidth                                    : 1 920 pixels\nHeight                                   : 1 080 pixels\nDisplay aspect ratio                     : 16:9\nFrame rate mode                          : Constant\nFrame rate                               : 23.976 fps\nColor space                              : YUV\nChroma subsampling                       : 4:2:0\nBit depth                                : 8 bits\nScan type                                : Progressive\nBits/(Pixel*Frame)                       : 0.044\nStream size                              : 3.84 GiB (85%)\nWriting library                          : x264 core 142 r2479\nColor primaries                          : BT.709\nTransfer characteristics                 : BT.709\nMatrix coefficients                      : BT.709\n\nAudio\nID                                       : 2\nFormat                                   : AC-3\nFormat/Info                              : Audio Coding 3\nMode extension                           : CM (complete main)\nFormat settings, Endianness              : Big\nCodec ID                                 : ac-3\nDuration                                 : 4h 11mn\nBit rate mode                            : Constant\nBit rate                                 : 384 Kbps\nChannel(s)                               : 6 channels\nChannel positions                        : Front: L C R, Side: L R, LFE\nSampling rate                            : 48.0 KHz\nBit depth                                : 16 bits\nCompression mode                         : Lossy\nStream size                              : 690 MiB (15%)\nLanguage                                 : English","torrent":{"xt":"urn:btih:cd156ac289b5cd986c292f78cf1c8db31141b8c3","amp;dn":"Once+Upon+a+Time+in+America+%281984%29+%5BExtended+Director%27s+Cut%5D","amp;tr":["udp%3A%2F%2Ftracker.openbittorrent.com%3A80","udp%3A%2F%2Fopen.demonii.com%3A1337","udp%3A%2F%2Ftracker.coppersurfer.tk%3A6969","udp%3A%2F%2Fexodus.desync.com%3A6969"],"infoHash":"cd156ac289b5cd986c292f78cf1c8db31141b8c3","infoHashBuffer":{"type":"Buffer","data":[205,21,106,194,137,181,205,152,108,41,47,120,207,28,141,179,17,65,184,195]},"announce":[],"urlList":[]}}